<?xml version="1.0" encoding="UTF-8"?>
<svg id="svg2952" xmlns:xlink="http://www.w3.org/1999/xlink"
  viewBox="0 0 682.67 682.67">
  <defs>
    <mask id="mask" y="0" width="682.67" height="682.67" maskUnits="userSpaceOnUse" />
    <clipPath id="clippath">
      <rect y="0" width="682.67" height="682.67" style="fill: none;" />
    </clipPath>
  </defs>
  <g style="mask: url(#mask);">
    <g id="g2958">
      <g id="g2960">
        <g style="clip-path: url(#clippath);">
          <g id="g2962">
            <g id="g2968">
              <path id="path2970"
                d="M617.5,396.71c0,152.52-123.64,276.17-276.17,276.17S65.17,549.23,65.17,396.71,188.81,120.54,341.33,120.54s276.17,123.64,276.17,276.17Z"
                style="fill: none; stroke: #000; stroke-miterlimit: 13.33; stroke-width: 20px;" />
            </g>
            <g id="g2972">
              <path id="path2974" d="M341.33,154.49c57.88,0,110.97,20.53,152.37,54.7"
                style="fill: none; stroke: #000; stroke-dasharray: 0 0 0 0 0 20 13.33 20 13.33 1133.33; stroke-miterlimit: 13.33; stroke-width: 20px;" />
            </g>
            <g id="g2976">
              <path id="path2978"
                d="M422.24,72.09h-161.81c-1.95-1.95-3.05-3.05-5-5V14.8c1.95-1.95,3.05-3.05,5-5h161.81c1.95,1.95,3.05,3.05,5,5v52.3c-1.95,1.95-3.05,3.05-5,5Z"
                style="fill: none; stroke: #000; stroke-miterlimit: 13.33; stroke-width: 20px;" />
            </g>
            <path id="path2980" d="M385.78,118.95h-88.89v-46.86h88.89v46.86Z"
              style="fill: none; stroke: #000; stroke-miterlimit: 13.33; stroke-width: 20px;" />
            <g id="g2982">
              <path id="path2984" d="M296.67,36.46v35.63"
                style="fill: none; stroke: #000; stroke-miterlimit: 13.33; stroke-width: 20px;" />
            </g>
            <g id="g2986">
              <path id="path2988" d="M341.33,36.46v35.63"
                style="fill: none; stroke: #000; stroke-miterlimit: 13.33; stroke-width: 20px;" />
            </g>
            <g id="g2990">
              <path id="path2992" d="M385.78,36.46v35.63"
                style="fill: none; stroke: #000; stroke-miterlimit: 13.33; stroke-width: 20px;" />
            </g>
            <g id="g2994">
              <path id="path2996"
                d="M550.24,396.71c0,115.38-93.53,208.91-208.91,208.91s-208.91-93.53-208.91-208.91,93.53-208.91,208.91-208.91,208.91,93.53,208.91,208.91Z"
                style="fill: none; stroke: #000; stroke-miterlimit: 13.33; stroke-width: 20px;" />
            </g>
            <g id="g2998">
              <path id="path3000" d="M523.58,396.71h-182.24V214.46"
                style="fill: none; stroke: #000; stroke-miterlimit: 13.33; stroke-width: 20px;" />
            </g>
            <g id="g3002">
              <path id="path3004" d="M341.33,605.62v-58.02"
                style="fill: none; stroke: #000; stroke-miterlimit: 13.33; stroke-width: 20px;" />
            </g>
            <g id="g3006">
              <path id="path3008" d="M132.42,396.71h58.02"
                style="fill: none; stroke: #000; stroke-miterlimit: 13.33; stroke-width: 20px;" />
            </g>
            <g id="g3010">
              <path id="path3012" d="M448.03,290.01l41.03-41.03"
                style="fill: none; stroke: #000; stroke-miterlimit: 13.33; stroke-width: 20px;" />
            </g>
            <g id="g3014">
              <path id="path3016" d="M193.61,544.43l41.03-41.03"
                style="fill: none; stroke: #000; stroke-miterlimit: 13.33; stroke-width: 20px;" />
            </g>
            <g id="g3018">
              <path id="path3020" d="M234.64,290.01l-41.03-41.03"
                style="fill: none; stroke: #000; stroke-miterlimit: 13.33; stroke-width: 20px;" />
            </g>
            <g id="g3022">
              <path id="path3024" d="M489.06,544.43l-41.03-41.03"
                style="fill: none; stroke: #000; stroke-miterlimit: 13.33; stroke-width: 20px;" />
            </g>
          </g>
        </g>
      </g>
    </g>
  </g>
  <g>
    <g>
      <path
        d="M497.72,663.94c-26.14,0-47.28-6.25-58.36-12.09-3.22-1.7-4.89-5.37-4.05-8.92l8.15-34.4c.56-2.36,2.16-4.34,4.35-5.38,1.09-.52,2.26-.78,3.44-.78s2.38,.27,3.48,.8c8.84,4.27,25.41,8.86,40.89,8.86,11.6,0,31.23-4.61,31.23-21.88,0-6.08,0-24.59-47.23-24.59-9.89,0-17.01,.48-25.39,1.72-.39,.06-.78,.09-1.17,.09-2.08,0-4.09-.81-5.6-2.28-1.79-1.75-2.65-4.24-2.34-6.72l12.98-102.91c.5-4,3.91-7,7.94-7h108.04c4.42,0,8,3.58,8,8v37.72c0,4.42-3.58,8-8,8h-69.09l-1.9,13.58c1.09,0,2.21,0,3.39,0,22.14,0,42.08,5.54,56.17,15.61,17.84,12.06,27.27,31.34,27.27,55.76,0,38.17-31.67,76.81-92.2,76.81Z"
        style="fill: #fff;" />
      <path
        d="M574.08,456.46v37.72h-76.05l-4.22,30.18c4.22-.6,7.85-.6,12.67-.6,18.71,0,37.72,4.22,51.61,14.18,14.79,9.96,23.84,26.26,23.84,49.19,0,36.52-31.39,68.81-84.2,68.81-23.84,0-43.76-5.43-54.62-11.17l8.15-34.4c8.75,4.22,26.56,9.66,44.36,9.66,19.01,0,39.23-9.05,39.23-29.88s-16-32.59-55.23-32.59c-10.86,0-18.41,.6-26.56,1.81l12.98-102.91h108.04m0-16h-108.04c-8.06,0-14.87,6-15.87,14l-12.98,102.91c-.63,4.96,1.11,9.94,4.68,13.44,3.01,2.95,7.04,4.56,11.19,4.56,.78,0,1.56-.06,2.35-.17,7.96-1.18,14.75-1.64,24.21-1.64,19.75,0,29.27,3.4,33.78,6.24,3.92,2.47,5.44,5.38,5.44,10.35,0,4.15-1.57,6.95-5.25,9.36-4.38,2.87-10.94,4.52-17.98,4.52-15.19,0-30.69-4.82-37.41-8.07-2.2-1.06-4.58-1.59-6.96-1.59-2.35,0-4.7,.52-6.88,1.55-4.38,2.08-7.58,6.04-8.69,10.76l-8.15,34.4c-1.68,7.1,1.65,14.43,8.1,17.84,15.44,8.15,38.65,13.02,62.09,13.02,28.94,0,53.99-8.53,72.44-24.67,17.9-15.66,27.76-37.02,27.76-60.14,0-13.64-2.72-25.97-8.08-36.64-5.23-10.41-12.84-19.05-22.63-25.69-9.73-6.93-21.89-11.89-35.5-14.62h42.36c8.84,0,16-7.16,16-16v-37.72c0-8.84-7.16-16-16-16h0Z" />
    </g>
    <g>
      <path
        d="M497.72,660.94c-25.59,0-46.2-6.07-56.96-11.74-2.02-1.06-3.06-3.36-2.53-5.57l8.15-34.4c.35-1.47,1.35-2.71,2.72-3.36,.68-.32,1.42-.49,2.15-.49s1.49,.17,2.17,.5c9.14,4.41,26.24,9.16,42.19,9.16,12.71,0,34.23-5.24,34.23-24.88,0-6.83,0-27.59-50.23-27.59-9.92,0-17.4,.51-25.83,1.76-.24,.04-.49,.05-.73,.05-1.3,0-2.56-.51-3.5-1.43-1.12-1.09-1.66-2.65-1.46-4.2l12.98-102.91c.32-2.5,2.44-4.37,4.96-4.37h108.04c2.76,0,5,2.24,5,5v37.72c0,2.76-2.24,5-5,5h-71.7l-2.75,19.66c2.17-.08,4.38-.08,6.85-.08,21.53,0,40.87,5.35,54.46,15.08,17,11.48,25.99,29.91,25.99,53.3,0,36.68-30.64,73.81-89.2,73.81Z" />
      <path
        d="M574.08,456.46v37.72h-76.05l-4.22,30.18c4.22-.6,7.85-.6,12.67-.6,18.71,0,37.72,4.22,51.61,14.18,14.79,9.96,23.84,26.26,23.84,49.19,0,36.52-31.39,68.81-84.2,68.81-23.84,0-43.76-5.43-54.62-11.17l8.15-34.4c8.75,4.22,26.56,9.66,44.36,9.66,19.01,0,39.23-9.05,39.23-29.88s-16-32.59-55.23-32.59c-10.86,0-18.41,.6-26.56,1.81l12.98-102.91h108.04m0-10h-108.04c-5.04,0-9.29,3.75-9.92,8.75l-12.98,102.91c-.39,3.1,.69,6.21,2.93,8.4,1.88,1.84,4.4,2.85,6.99,2.85,.49,0,.98-.04,1.47-.11,8.27-1.23,15.31-1.7,25.09-1.7,17.01,0,29.45,2.41,36.99,7.17,5.7,3.6,8.24,8.35,8.24,15.42,0,15.69-18.38,19.88-29.23,19.88-17.46,0-33.81-5.67-40.02-8.66-1.37-.66-2.86-.99-4.35-.99-1.47,0-2.94,.32-4.3,.97-2.74,1.3-4.73,3.78-5.43,6.72l-8.15,34.4c-1.05,4.44,1.03,9.02,5.06,11.15,11.29,5.96,32.79,12.32,59.29,12.32s51.15-8.02,68.49-23.18c16.58-14.5,25.71-34.26,25.71-55.62,0-25.1-9.73-44.95-28.13-57.4-14.43-10.3-34.77-15.97-57.31-15.97-.37,0-.73,0-1.09,0l1.34-9.58h67.35c5.52,0,10-4.48,10-10v-37.72c0-5.52-4.48-10-10-10h0Z"
        style="fill: #fff;" />
    </g>
  </g>
</svg>